<?xml version="1.0" encoding="UTF-8"?>
<svg version="1.1" xmlns="http://www.w3.org/2000/svg" width="512" height="512">
<path d="M0 0 C168.96 0 337.92 0 512 0 C512 168.96 512 337.92 512 512 C343.04 512 174.08 512 0 512 C0 343.04 0 174.08 0 0 Z " fill="#B8292F" transform="translate(0,0)"/>
<path d="M0 0 C26.07 0 52.14 0 79 0 C79.33 21.45 79.66 42.9 80 65 C80.66 62.36 81.32 59.72 82 57 C88.93318316 35.97769766 104.66631411 20.61959111 124.0847168 10.70532227 C139.74765418 3.12390047 156.04602476 -0.18630534 173.375 -0.125 C174.46039063 -0.12886719 175.54578125 -0.13273438 176.6640625 -0.13671875 C203.92726802 -0.10379217 229.30167113 10.05216037 249.1875 28.6875 C264.68230599 44.73123631 269.32518796 62.62745025 269.22705078 84.36157227 C269.22648597 86.116572 269.22680459 87.8715722 269.22793579 89.62657166 C269.22850759 94.36973093 269.21678138 99.11278823 269.20278788 103.85592389 C269.19025158 108.82068691 269.18910773 113.78545248 269.18673706 118.75022888 C269.1805308 128.14226613 269.16413155 137.5342566 269.14403808 146.92627329 C269.11746347 159.62439777 269.10669954 172.32253513 269.09503365 185.02068043 C269.07625034 205.01382197 269.03639895 225.0068648 269 245 C242.93 245 216.86 245 190 245 C189.67 198.8 189.34 152.6 189 105 C182.4 105 175.8 105 169 105 C168.67 113.58 168.34 122.16 168 131 C163.90024189 128.95012094 160.8397507 126.43162903 157.4375 123.4375 C156.18697649 122.35196703 154.93566506 121.2673411 153.68359375 120.18359375 C153.06339355 119.64589355 152.44319336 119.10819336 151.80419922 118.55419922 C147.61145584 114.94242596 143.33115497 111.44457627 139 108 C138.41734375 107.51273437 137.8346875 107.02546875 137.234375 106.5234375 C134.51617505 104.42040912 133.13250222 103.99473706 129.65625 104.1328125 C125.41520455 105.13870149 123.81488054 106.45392241 120.75 109.5 C117.10536988 113.00521803 113.44923727 116.34061018 109.5 119.5 C104.75626147 123.3273345 100.26766284 127.37222414 95.78515625 131.5 C92.03586056 134.86542671 88.14165354 138.03253088 84.21484375 141.1875 C81.10825502 143.45802062 81.10825502 143.45802062 79.73828697 146.80783272 C79.72999084 147.91121892 79.72999084 147.91121892 79.7215271 149.03689575 C79.71036362 149.88106049 79.69920013 150.72522522 79.68769836 151.5949707 C79.68553818 152.522854 79.68337799 153.4507373 79.68115234 154.40673828 C79.67110672 155.38238739 79.6610611 156.3580365 79.65071106 157.36325073 C79.61973735 160.5989318 79.60280457 163.83452962 79.5859375 167.0703125 C79.56723726 169.30948612 79.54766473 171.54865261 79.5272522 173.78781128 C79.47580411 179.68967495 79.43624635 185.59156151 79.39910889 191.49353027 C79.35212636 198.57040741 79.29047446 205.6471699 79.23126221 212.72395325 C79.14289558 223.48258955 79.07324155 234.24120217 79 245 C52.93 245 26.86 245 0 245 C0 164.15 0 83.3 0 0 Z " fill="#FEFEFE" transform="translate(122,133)"/>
</svg>
